<svg width="46" height="16" viewBox="0 0 46 16" fill="none" xmlns="http://www.w3.org/2000/svg">
<path d="M0.666667 8C0.666667 10.9455 3.05448 13.3333 6 13.3333C8.94552 13.3333 11.3333 10.9455 11.3333 8C11.3333 5.05448 8.94552 2.66667 6 2.66667C3.05448 2.66667 0.666667 5.05448 0.666667 8ZM45.7071 8.70711C46.0976 8.31658 46.0976 7.68342 45.7071 7.29289L39.3431 0.928932C38.9526 0.538408 38.3195 0.538408 37.9289 0.928932C37.5384 1.31946 37.5384 1.95262 37.9289 2.34315L43.5858 8L37.9289 13.6569C37.5384 14.0474 37.5384 14.6805 37.9289 15.0711C38.3195 15.4616 38.9526 15.4616 39.3431 15.0711L45.7071 8.70711ZM6 8V9L45 9V8V7L6 7V8Z" fill="#8B54F7"/>
</svg>
